<svg width="30" height="27" viewBox="0 0 30 27" fill="none" xmlns="http://www.w3.org/2000/svg">
<path d="M27.015 12.3444C27.535 12.9344 28.43 13.0644 29.105 12.6194C29.84 12.1294 30.04 11.1344 29.55 10.3994L27.15 6.79937C27.01 6.58937 26.82 6.41437 26.595 6.28937L16.57 0.719365C15.605 0.184365 14.43 0.184365 13.46 0.719365L3.43999 6.28437C3.16999 6.43437 2.95499 6.65437 2.80999 6.92437L0.384991 11.4194C-0.245009 12.5894 0.194991 14.0444 1.36499 14.6744L3.01499 15.5594V18.2244C3.01499 19.3744 3.63499 20.4394 4.63499 21.0094L13.435 25.9944C14.415 26.5494 15.61 26.5494 16.59 25.9944L25.39 21.0094C26.395 20.4394 27.01 19.3794 27.01 18.2244V12.3494L27.015 12.3444ZM15.015 11.8544L7.50999 7.68437L15.015 3.51437L22.52 7.68437L15.015 11.8544ZM12.94 14.3644L11.875 16.6744L3.58499 12.2344L4.85499 9.87437L12.94 14.3644Z" fill="#AAB2BF" fill-opacity="0.9"/>
</svg>
