<svg width="27" height="20" viewBox="0 0 27 20" fill="none" xmlns="http://www.w3.org/2000/svg">
<path d="M23.31 3.14878C23.75 3.14878 24.11 3.50878 24.11 3.94878V5.54878H3.31003V3.94878C3.31003 3.50878 3.67003 3.14878 4.11003 3.14878H23.31ZM24.11 8.74878V16.7488C24.11 17.1888 23.75 17.5488 23.31 17.5488H4.11003C3.67003 17.5488 3.31003 17.1888 3.31003 16.7488V8.74878H24.11ZM4.11003 0.748779C2.34503 0.748779 0.910034 2.18378 0.910034 3.94878V16.7488C0.910034 18.5138 2.34503 19.9488 4.11003 19.9488H23.31C25.075 19.9488 26.51 18.5138 26.51 16.7488V3.94878C26.51 2.18378 25.075 0.748779 23.31 0.748779H4.11003ZM4.91003 14.7488C4.91003 15.4138 5.44503 15.9488 6.11003 15.9488H8.51003C9.17503 15.9488 9.71003 15.4138 9.71003 14.7488C9.71003 14.0838 9.17503 13.5488 8.51003 13.5488H6.11003C5.44503 13.5488 4.91003 14.0838 4.91003 14.7488ZM12.11 14.7488C12.11 15.4138 12.645 15.9488 13.31 15.9488H16.51C17.175 15.9488 17.71 15.4138 17.71 14.7488C17.71 14.0838 17.175 13.5488 16.51 13.5488H13.31C12.645 13.5488 12.11 14.0838 12.11 14.7488Z" fill="black"/>
</svg>
