<svg width="18" height="30" viewBox="0 0 18 30" fill="none" xmlns="http://www.w3.org/2000/svg">
<path d="M7.65532 1.72804C7.65532 0.982864 8.25482 0.383362 9 0.383362C9.74518 0.383362 10.3447 0.982864 10.3447 1.72804V3.96917H13.4823C14.474 3.96917 15.2752 4.77037 15.2752 5.76207C15.2752 6.75378 14.474 7.55498 13.4823 7.55498H7.04461C5.64951 7.55498 4.51774 8.68675 4.51774 10.0819C4.51774 11.3425 5.44221 12.407 6.68603 12.5863L11.8182 13.3203C14.8325 13.7517 17.0681 16.329 17.0681 19.3713C17.0681 22.7498 14.3283 25.484 10.9554 25.484H10.3447V27.7252C10.3447 28.4703 9.74518 29.0698 9 29.0698C8.25482 29.0698 7.65532 28.4703 7.65532 27.7252V25.484H3.62129C2.62959 25.484 1.82838 24.6828 1.82838 23.6911C1.82838 22.6994 2.62959 21.8982 3.62129 21.8982H10.9554C12.3505 21.8982 13.4823 20.7664 13.4823 19.3713C13.4823 18.1107 12.5578 17.0462 11.314 16.8669L6.18178 16.1329C3.16746 15.7071 0.931931 13.1242 0.931931 10.0819C0.931931 6.70895 3.67171 3.96917 7.04461 3.96917H7.65532V1.72804Z" fill="#F12B2B"/>
</svg>
