<svg width="31" height="28" viewBox="0 0 31 28" fill="none" xmlns="http://www.w3.org/2000/svg">
<path d="M15.393 0.535187C14.7072 0.535187 14.1555 1.08691 14.1555 1.77269V2.39144H14.0627C12.1755 2.39144 10.6493 3.92284 10.6493 5.80487C10.6493 7.52706 11.9332 8.98112 13.6399 9.19253L16.7852 9.5844C17.0482 9.61534 17.2493 9.84222 17.2493 10.1103C17.2493 10.4042 17.0121 10.6363 16.7233 10.6363L12.918 10.6414C12.1188 10.6414 11.4743 11.286 11.4743 12.0852C11.4743 12.8844 12.1188 13.5289 12.918 13.5289H14.1555V14.1477C14.1555 14.8335 14.7072 15.3852 15.393 15.3852C16.0788 15.3852 16.6305 14.8335 16.6305 14.1477V13.5289H16.7233C18.6105 13.5289 20.1368 11.9975 20.1368 10.1155C20.1368 8.39331 18.8529 6.93925 17.1462 6.72784L14.0008 6.33597C13.7379 6.30503 13.5368 6.07816 13.5368 5.81003C13.5368 5.51612 13.774 5.28409 14.0627 5.28409L17.4555 5.27894C18.2547 5.27894 18.8993 4.63441 18.8993 3.83519C18.8993 3.03597 18.2547 2.39144 17.4555 2.39144H16.6305V1.77269C16.6305 1.08691 16.0788 0.535187 15.393 0.535187ZM6.17881 18.9688L3.98225 21.1602H2.19303C1.28037 21.1602 0.54303 21.8975 0.54303 22.8102V26.1102C0.54303 27.0228 1.28037 27.7602 2.19303 27.7602H18.7188C20.2141 27.7602 21.6733 27.2807 22.8799 26.3938L29.4077 21.583C30.3255 20.9075 30.5215 19.6185 29.846 18.7007C29.1705 17.7828 27.8815 17.5869 26.9637 18.2624L20.7865 22.8102H14.9805C14.2947 22.8102 13.743 22.2585 13.743 21.5727C13.743 20.8869 14.2947 20.3352 14.9805 20.3352H18.693C19.6057 20.3352 20.343 19.5978 20.343 18.6852C20.343 17.7725 19.6057 17.0352 18.693 17.0352H10.8452C9.09725 17.0352 7.41631 17.7313 6.17881 18.9688Z" fill="black"/>
</svg>
