<svg width="29" height="25" viewBox="0 0 29 25" fill="none" xmlns="http://www.w3.org/2000/svg">
<path d="M20.6878 24.3591C21.137 24.8083 21.8666 24.8083 22.3158 24.3591L28.0658 18.6091C28.515 18.1599 28.515 17.4303 28.0658 16.9811C27.6166 16.5319 26.887 16.5319 26.4378 16.9811L22.65 20.7689V7.44688C22.65 6.81079 22.1361 6.29688 21.5 6.29688C20.8639 6.29688 20.35 6.81079 20.35 7.44688V20.7689L16.5622 16.9811C16.113 16.5319 15.3834 16.5319 14.9342 16.9811C14.485 17.4303 14.485 18.1599 14.9342 18.6091L20.6842 24.3591H20.6878Z" fill="#AAB2BF" fill-opacity="0.9"/>
<path d="M8.31219 1.20966C7.86297 0.760437 7.13344 0.760437 6.68422 1.20966L0.934219 6.95966C0.485001 7.40887 0.485001 8.13841 0.934219 8.58763C1.38344 9.03684 2.11297 9.03684 2.56219 8.58763L6.35 4.79981V18.1218C6.35 18.7579 6.86391 19.2718 7.5 19.2718C8.13609 19.2718 8.65 18.7579 8.65 18.1218V4.79981L12.4378 8.58763C12.887 9.03684 13.6166 9.03684 14.0658 8.58763C14.515 8.13841 14.515 7.40887 14.0658 6.95966L8.31578 1.20966H8.31219Z" fill="#AAB2BF" fill-opacity="0.9"/>
</svg>
